<svg version="1.1" id="Layer_1" xmlns="http://www.w3.org/2000/svg" xmlns:xlink="http://www.w3.org/1999/xlink" x="0px" y="0px"
	 width="100%" viewBox="0 0 1244 708" enable-background="new 0 0 1244 708" xml:space="preserve">
<path fill="#FFFFFF" opacity="1.000000" stroke="none" 
	d="
M883.000000,709.000000 
	C588.704285,709.000000 294.908539,709.000000 1.056403,709.000000 
	C1.056403,473.067810 1.056403,237.135620 1.056403,1.101705 
	C415.545807,1.101705 830.091614,1.101705 1244.818726,1.101705 
	C1244.818726,236.999878 1244.818726,472.999939 1244.818726,709.000000 
	C1124.468872,709.000000 1003.984436,709.000000 883.000000,709.000000 
M1170.500000,418.001007 
	C1178.883301,418.001007 1187.266602,418.001007 1196.838013,418.001007 
	C1194.609375,416.080536 1193.421021,414.981628 1192.156860,413.978424 
	C1170.109131,396.481262 1148.042969,379.007111 1125.998535,361.505768 
	C1020.468445,277.724121 914.955322,193.921295 809.338684,110.249039 
	C807.108765,108.482513 803.708435,107.346962 800.851440,107.341644 
	C718.531616,107.188545 636.211365,107.217827 553.891235,107.217606 
	C534.394348,107.217552 514.897400,107.231453 495.400635,107.188148 
	C493.981812,107.184998 492.148865,107.255127 491.213348,106.460907 
	C485.446381,101.564735 485.482666,101.446342 479.608582,106.107880 
	C423.638214,150.524490 367.679962,194.956406 311.713684,239.378143 
	C309.740204,240.944519 307.719330,242.451202 304.805542,244.688248 
	C304.805542,213.189178 304.805542,183.114578 304.805542,153.173065 
	C283.132721,153.173065 261.878571,153.173065 240.217789,153.173065 
	C240.217789,155.277939 240.217789,157.077087 240.217804,158.876221 
	C240.218170,203.035812 240.204041,247.195435 240.251450,291.354980 
	C240.254623,294.300995 239.847626,296.545807 237.203857,298.631042 
	C201.896362,326.479309 166.704239,354.473907 131.486618,382.436127 
	C118.833855,392.482178 106.208115,402.562469 93.527435,412.573151 
	C90.655640,414.840240 88.327728,417.328430 91.198257,420.857910 
	C94.077187,424.397766 97.088028,422.581543 99.847984,420.288483 
	C101.129234,419.223969 102.421860,418.172607 103.726601,417.137024 
	C216.440491,327.674133 329.155884,238.213089 441.871765,148.752686 
	C456.593231,137.068558 471.317841,125.388374 486.162659,113.609802 
	C487.709442,114.779579 489.040039,115.745087 490.327179,116.765404 
	C509.643311,132.077438 528.959351,147.389633 548.264526,162.715424 
	C654.057312,246.700790 759.857239,330.677277 865.588318,414.740295 
	C868.668884,417.189514 871.687134,418.074341 875.547058,418.070862 
	C973.531311,417.982147 1071.515625,418.001007 1170.500000,418.001007 
M450.018494,506.281281 
	C450.679382,502.032684 451.908752,497.785126 451.916260,493.535370 
	C452.036591,425.222473 452.001312,356.909332 452.001373,288.596222 
	C452.001373,286.835785 452.001404,285.075348 452.001404,283.193207 
	C450.330444,283.104034 449.351227,283.006226 448.372040,283.006073 
	C396.387421,282.998688 344.402832,282.998016 292.418213,283.007965 
	C291.087952,283.008209 289.740570,283.020996 288.430145,283.219360 
	C279.631561,284.551117 273.837463,291.257507 274.312347,299.982452 
	C293.353851,299.982452 312.428192,299.982452 332.195251,299.982452 
	C331.001038,302.534546 330.118988,304.465271 329.199371,306.377960 
	C311.320129,343.564545 293.480194,380.770203 275.470764,417.893646 
	C274.030426,420.862671 273.878876,423.216888 275.905182,425.626190 
	C282.616852,433.606384 288.537170,442.519714 296.326660,449.267883 
	C310.730957,461.746582 328.168030,466.453857 347.109680,463.447083 
	C371.282593,459.609985 387.907898,445.107788 399.624084,424.385895 
	C400.518494,422.803955 400.257141,419.874756 399.413208,418.106140 
	C382.145721,381.920288 364.710663,345.814423 347.324768,309.685028 
	C345.858978,306.638977 344.504730,303.539246 343.033691,300.322357 
	C369.256134,300.322357 394.842560,300.322357 420.958221,300.322357 
	C420.958221,375.699005 420.958221,450.756378 420.958221,525.757080 
	C432.921661,526.965027 443.577972,519.900879 450.018494,506.281281 
M552.473633,357.079315 
	C552.473633,338.171936 552.473633,319.264587 552.473633,300.355957 
	C578.744751,300.355957 604.284546,300.355957 630.273315,300.355957 
	C629.631226,302.021576 629.247803,303.268524 628.688293,304.430756 
	C611.147766,340.868347 593.756104,377.379578 575.874756,413.649353 
	C572.818176,419.849304 573.022705,424.352600 576.891174,429.921844 
	C590.869324,450.045624 608.830688,463.512543 634.144653,464.024719 
	C663.787659,464.624451 683.897034,448.979706 698.068237,424.369568 
	C699.028381,422.702179 698.585571,419.517609 697.661255,417.579529 
	C680.610840,381.830017 663.382263,346.165497 646.209717,310.474243 
	C644.652771,307.238342 643.220520,303.942474 641.401794,299.953888 
	C661.345398,299.953888 680.431030,299.953888 699.543030,299.953888 
	C698.747803,288.673340 692.269470,283.013672 680.468506,283.008392 
	C628.970520,282.985352 577.472473,282.996368 525.974487,283.010132 
	C524.525879,283.010529 523.077332,283.180725 521.431274,283.284119 
	C521.431274,290.369812 521.432739,297.142334 521.430969,303.914856 
	C521.427673,316.561462 521.390625,329.208160 521.426575,341.854645 
	C521.467224,356.164490 521.639771,370.474182 521.632568,384.783875 
	C521.623718,402.417297 521.422668,420.050629 521.426270,437.684021 
	C521.429993,456.317566 521.824829,474.954407 521.578064,493.583557 
	C521.399841,507.038666 528.038330,518.744751 540.238159,523.868896 
	C543.880371,525.398682 548.008850,525.770874 552.572815,526.825500 
	C552.572815,469.699036 552.572815,413.825714 552.473633,357.079315 
M497.461243,282.999268 
	C487.044281,282.999268 476.627319,282.999268 465.999023,282.999268 
	C465.999023,285.782471 465.999054,287.771912 465.999054,289.761322 
	C465.999023,356.587463 466.211975,423.414642 465.900757,490.239319 
	C465.764221,519.548401 460.196075,547.688904 443.958191,573.328613 
	C455.445618,580.570923 463.785553,591.138123 469.878357,603.276245 
	C475.812836,615.099060 480.721222,627.436890 485.845520,639.018311 
	C485.845520,622.668945 485.811066,605.670776 485.875732,588.672913 
	C485.888062,585.431824 485.831879,582.822937 482.319000,580.804993 
	C478.779358,578.771667 478.787079,573.707214 481.509399,570.738403 
	C484.328247,567.664307 488.753998,567.499268 491.727966,570.357239 
	C494.690521,573.204224 495.096313,578.293884 491.633118,580.464050 
	C487.709137,582.923035 487.788208,586.049927 487.839844,589.746887 
	C487.953888,597.911072 487.876068,606.078003 487.876251,614.243774 
	C487.876434,622.486816 487.876282,630.729797 487.876282,638.972839 
	C497.050781,613.719299 506.735748,589.064209 529.486938,573.110657 
	C526.782898,568.441467 523.768555,564.197510 521.717224,559.530334 
	C512.081970,537.608337 507.285461,514.445129 507.142273,490.650269 
	C506.738129,423.493256 507.001160,356.332245 507.001251,289.172791 
	C507.001251,287.237793 507.001221,285.302795 507.001221,282.999237 
	C503.721527,282.999237 501.084778,282.999237 497.461243,282.999268 
M568.494873,203.000198 
	C509.121002,203.000198 449.747101,203.000198 390.399780,203.000198 
	C390.399780,209.367920 390.399780,215.078156 390.399780,220.586044 
	C454.801514,220.586044 518.802979,220.586044 582.688110,220.586044 
	C582.688110,214.576447 582.688110,208.985123 582.688110,203.000137 
	C578.087036,203.000137 573.789185,203.000137 568.494873,203.000198 
M515.500000,246.999649 
	C530.571838,246.999649 545.643677,246.999649 560.737793,246.999649 
	C560.737793,241.009903 560.737793,235.752991 560.737793,230.276169 
	C511.141144,230.276169 461.806549,230.276169 412.350220,230.276169 
	C412.350220,235.932312 412.350220,241.305542 412.350220,246.999557 
	C446.632690,246.999557 480.566345,246.999557 515.500000,246.999649 
M548.999573,267.386414 
	C548.999573,263.311249 548.999573,259.236084 548.999573,255.264984 
	C507.272797,255.264984 466.384277,255.264984 425.337341,255.264984 
	C425.337341,261.240021 425.337341,266.947266 425.337341,272.817444 
	C466.562561,272.817444 507.450562,272.817444 548.694885,272.817444 
	C548.803406,271.226227 548.901428,269.788635 548.999573,267.386414 
M1048.331055,532.495239 
	C1048.331055,537.595337 1048.331055,542.695435 1048.331055,547.619263 
	C1052.609009,547.619263 1056.172607,547.619263 1060.153931,547.619263 
	C1060.153931,535.179016 1060.153931,523.128601 1060.153931,509.956665 
	C1062.087891,512.341675 1063.337280,513.806580 1064.504517,515.334290 
	C1071.378906,524.331787 1078.657837,533.060425 1084.943359,542.453247 
	C1088.964600,548.462463 1093.783325,548.808472 1099.646484,547.562927 
	C1099.646484,528.295959 1099.646484,509.240204 1099.646484,490.272217 
	C1095.864624,490.272217 1092.445435,490.272217 1088.559692,490.272217 
	C1088.559692,502.264191 1088.559692,513.976440 1088.559692,526.881958 
	C1087.176270,525.235291 1086.557495,524.549255 1085.994019,523.820435 
	C1078.869263,514.603821 1071.229858,505.727081 1064.814453,496.040009 
	C1060.440796,489.436035 1055.114380,489.331451 1048.331299,490.452087 
	C1048.331299,504.231049 1048.331299,517.864136 1048.331055,532.495239 
M1136.958008,547.754517 
	C1140.706177,547.754517 1144.454346,547.754517 1148.737061,547.754517 
	C1148.737061,539.069763 1148.737061,530.717957 1148.737061,521.156372 
	C1156.820557,529.817322 1164.008545,537.578552 1171.288208,545.252747 
	C1172.361938,546.384644 1173.821045,547.789490 1175.187378,547.888550 
	C1179.747070,548.219360 1184.345581,548.013977 1189.887085,548.013977 
	C1179.688843,537.433350 1170.193604,527.582092 1160.364624,517.384460 
	C1169.624390,508.006195 1178.510498,499.006500 1187.020264,490.387878 
	C1178.067871,487.948181 1170.809814,490.989746 1165.131470,498.843384 
	C1162.721680,502.176331 1159.311401,504.770569 1156.504883,507.836884 
	C1154.230469,510.321838 1152.178589,513.010620 1150.028076,515.609070 
	C1149.473999,515.212463 1148.920044,514.815918 1148.365967,514.419312 
	C1148.365967,506.347900 1148.365967,498.276459 1148.365967,490.323486 
	C1144.116699,490.323486 1140.378052,490.323486 1136.434448,490.323486 
	C1136.434448,509.442932 1136.434448,528.219055 1136.958008,547.754517 
M763.727905,505.790497 
	C764.028198,515.252808 768.087463,520.198425 777.241699,522.139160 
	C783.247742,523.412415 789.370361,524.269958 795.230774,526.017761 
	C797.120178,526.581177 799.546509,529.380920 799.555176,531.168152 
	C799.565491,533.291626 797.624817,535.901794 795.794312,537.406860 
	C794.315308,538.622986 791.768921,538.721069 789.656189,538.954773 
	C781.283630,539.880493 774.627686,535.926514 768.322632,530.654663 
	C765.920654,533.682861 763.789185,536.369995 761.565125,539.173828 
	C770.090637,546.300842 779.478088,549.717285 790.043579,548.913147 
	C798.410278,548.276367 806.254883,545.848022 810.161682,537.342468 
	C815.094604,526.602783 809.068787,516.674255 796.161316,514.045532 
	C790.631714,512.919373 784.954712,512.357666 779.567139,510.779907 
	C777.705933,510.234894 775.538269,507.499512 775.322693,505.562988 
	C775.139648,503.917938 777.265320,501.601227 778.930359,500.298981 
	C780.216614,499.292999 782.353638,499.226196 784.143494,499.038574 
	C791.718567,498.244354 797.985535,501.521637 804.053284,506.127289 
	C806.279663,502.880981 808.291565,499.947418 810.419006,496.845306 
	C801.711243,490.810638 792.564697,488.166199 782.643494,489.166412 
	C771.237793,490.316254 765.181335,495.698273 763.727905,505.790497 
M718.898193,524.041382 
	C717.912231,533.410828 713.018433,538.218994 704.703064,537.988281 
	C696.896484,537.771606 691.875793,532.373718 691.612854,523.395874 
	C691.383911,515.578064 691.560913,507.748352 691.559082,499.923889 
	C691.558289,496.681335 691.558899,493.438751 691.558899,490.227417 
	C687.181152,490.227417 683.577148,490.227417 679.954041,490.227417 
	C679.954041,503.085876 679.284485,515.751953 680.145508,528.313110 
	C680.979309,540.477234 691.049316,548.589600 703.727783,549.010559 
	C717.489014,549.467468 728.247192,542.601685 729.849854,530.284851 
	C731.363281,518.653687 730.710449,506.740112 730.998108,494.950439 
	C731.036743,493.366974 731.003418,491.781738 731.003418,490.342712 
	C726.542908,490.342712 722.806274,490.342712 718.901367,490.342712 
	C718.901367,501.507477 718.901367,512.319275 718.898193,524.041382 
M871.257202,524.500061 
	C871.257202,516.745483 871.257202,508.990906 871.257202,500.790802 
	C878.171692,500.790802 884.412415,500.790802 890.520996,500.790802 
	C890.520996,496.933075 890.520996,493.548828 890.520996,490.321198 
	C873.419006,490.321198 856.693237,490.321198 839.974304,490.321198 
	C839.974304,493.934784 839.974304,497.216980 839.974304,501.023804 
	C846.367493,501.023804 852.596069,501.023804 859.289917,501.023804 
	C859.289917,516.921570 859.289917,532.297363 859.289917,547.700195 
	C863.517090,547.700195 867.255249,547.700195 871.257446,547.700195 
	C871.257446,540.097229 871.257446,532.798645 871.257202,524.500061 
M935.578186,501.528137 
	C935.578186,497.760925 935.578186,493.993713 935.578186,490.306366 
	C931.157349,490.306366 927.411316,490.306366 923.669800,490.306366 
	C923.669800,509.685699 923.669800,528.734375 923.669800,547.798218 
	C938.298279,547.798218 952.566650,547.798218 966.919678,547.798218 
	C966.919678,544.135132 966.919678,540.698059 966.919678,536.846069 
	C956.419189,536.846069 946.146484,536.846069 935.577393,536.846069 
	C935.577393,525.126892 935.577393,513.822693 935.578186,501.528137 
M646.000671,514.497986 
	C646.000671,506.417114 646.000671,498.336243 646.000671,490.379761 
	C641.632935,490.379761 637.918152,490.379761 634.033752,490.379761 
	C634.033752,496.413788 634.033936,502.058807 634.033752,507.703796 
	C634.033569,513.524475 634.101196,519.346252 634.014648,525.165649 
	C633.916321,531.775574 630.773560,536.220337 625.376587,537.648743 
	C619.459229,539.214905 614.347656,536.713501 611.002686,530.644714 
	C610.482361,529.700806 609.858032,528.814209 609.241150,527.836548 
	C605.576233,529.260132 602.233337,530.558655 598.934937,531.839966 
	C602.411499,543.455322 611.212585,549.445251 623.615417,549.009216 
	C634.912598,548.612061 643.638428,541.746399 645.526611,530.913147 
	C646.400574,525.899109 645.885925,520.643066 646.000671,514.497986 
M1000.289612,494.719238 
	C1000.289612,512.339783 1000.289612,529.960266 1000.289612,547.805542 
	C1004.564148,547.805542 1008.320007,547.805542 1012.341431,547.805542 
	C1012.341431,528.546265 1012.341431,509.465363 1012.341431,489.964783 
	C1009.290833,489.964783 1006.474976,490.160950 1003.698792,489.912872 
	C1000.554810,489.631836 999.989197,491.223267 1000.289612,494.719238 
z"/>
<path fill="#014E94" opacity="1.000000" stroke="none" 
	d="
M1170.000000,418.001007 
	C1071.515625,418.001007 973.531311,417.982147 875.547058,418.070862 
	C871.687134,418.074341 868.668884,417.189514 865.588318,414.740295 
	C759.857239,330.677277 654.057312,246.700790 548.264526,162.715424 
	C528.959351,147.389633 509.643311,132.077438 490.327179,116.765404 
	C489.040039,115.745087 487.709442,114.779579 486.162659,113.609802 
	C471.317841,125.388374 456.593231,137.068558 441.871765,148.752686 
	C329.155884,238.213089 216.440491,327.674133 103.726601,417.137024 
	C102.421860,418.172607 101.129234,419.223969 99.847984,420.288483 
	C97.088028,422.581543 94.077187,424.397766 91.198257,420.857910 
	C88.327728,417.328430 90.655640,414.840240 93.527435,412.573151 
	C106.208115,402.562469 118.833855,392.482178 131.486618,382.436127 
	C166.704239,354.473907 201.896362,326.479309 237.203857,298.631042 
	C239.847626,296.545807 240.254623,294.300995 240.251450,291.354980 
	C240.204041,247.195435 240.218170,203.035812 240.217804,158.876221 
	C240.217789,157.077087 240.217789,155.277939 240.217789,153.173065 
	C261.878571,153.173065 283.132721,153.173065 304.805542,153.173065 
	C304.805542,183.114578 304.805542,213.189178 304.805542,244.688248 
	C307.719330,242.451202 309.740204,240.944519 311.713684,239.378143 
	C367.679962,194.956406 423.638214,150.524490 479.608582,106.107880 
	C485.482666,101.446342 485.446381,101.564735 491.213348,106.460907 
	C492.148865,107.255127 493.981812,107.184998 495.400635,107.188148 
	C514.897400,107.231453 534.394348,107.217552 553.891235,107.217606 
	C636.211365,107.217827 718.531616,107.188545 800.851440,107.341644 
	C803.708435,107.346962 807.108765,108.482513 809.338684,110.249039 
	C914.955322,193.921295 1020.468445,277.724121 1125.998535,361.505768 
	C1148.042969,379.007111 1170.109131,396.481262 1192.156860,413.978424 
	C1193.421021,414.981628 1194.609375,416.080536 1196.838013,418.001007 
	C1187.266602,418.001007 1178.883301,418.001007 1170.000000,418.001007 
z"/>
<path fill="#DB974F" opacity="1.000000" stroke="none" 
	d="
M449.912384,506.660858 
	C443.577972,519.900879 432.921661,526.965027 420.958221,525.757080 
	C420.958221,450.756378 420.958221,375.699005 420.958221,300.322357 
	C394.842560,300.322357 369.256134,300.322357 343.033691,300.322357 
	C344.504730,303.539246 345.858978,306.638977 347.324768,309.685028 
	C364.710663,345.814423 382.145721,381.920288 399.413208,418.106140 
	C400.257141,419.874756 400.518494,422.803955 399.624084,424.385895 
	C387.907898,445.107788 371.282593,459.609985 347.109680,463.447083 
	C328.168030,466.453857 310.730957,461.746582 296.326660,449.267883 
	C288.537170,442.519714 282.616852,433.606384 275.905182,425.626190 
	C273.878876,423.216888 274.030426,420.862671 275.470764,417.893646 
	C293.480194,380.770203 311.320129,343.564545 329.199371,306.377960 
	C330.118988,304.465271 331.001038,302.534546 332.195251,299.982452 
	C312.428192,299.982452 293.353851,299.982452 274.312347,299.982452 
	C273.837463,291.257507 279.631561,284.551117 288.430145,283.219360 
	C289.740570,283.020996 291.087952,283.008209 292.418213,283.007965 
	C344.402832,282.998016 396.387421,282.998688 448.372040,283.006073 
	C449.351227,283.006226 450.330444,283.104034 452.001404,283.193207 
	C452.001404,285.075348 452.001373,286.835785 452.001373,288.596222 
	C452.001312,356.909332 452.036591,425.222473 451.916260,493.535370 
	C451.908752,497.785126 450.679382,502.032684 449.912384,506.660858 
M313.772369,359.274261 
	C303.858978,379.866760 293.945618,400.459259 283.861755,421.405914 
	C300.668518,421.405914 316.587860,421.405914 332.748230,421.405914 
	C332.748230,387.787292 332.748230,354.464966 332.748230,319.830688 
	C326.147369,333.522980 320.106995,346.052704 313.772369,359.274261 
M376.804260,391.670013 
	C365.464142,368.100159 354.124023,344.530334 342.341858,320.041718 
	C342.341858,354.559662 342.341858,387.909088 342.341858,421.442871 
	C358.576141,421.442871 374.463013,421.442871 391.119263,421.442871 
	C386.279358,411.413788 381.682739,401.888885 376.804260,391.670013 
z"/>
<path fill="#DB984F" opacity="1.000000" stroke="none" 
	d="
M552.523193,357.515869 
	C552.572815,413.825714 552.572815,469.699036 552.572815,526.825500 
	C548.008850,525.770874 543.880371,525.398682 540.238159,523.868896 
	C528.038330,518.744751 521.399841,507.038666 521.578064,493.583557 
	C521.824829,474.954407 521.429993,456.317566 521.426270,437.684021 
	C521.422668,420.050629 521.623718,402.417297 521.632568,384.783875 
	C521.639771,370.474182 521.467224,356.164490 521.426575,341.854645 
	C521.390625,329.208160 521.427673,316.561462 521.430969,303.914856 
	C521.432739,297.142334 521.431274,290.369812 521.431274,283.284119 
	C523.077332,283.180725 524.525879,283.010529 525.974487,283.010132 
	C577.472473,282.996368 628.970520,282.985352 680.468506,283.008392 
	C692.269470,283.013672 698.747803,288.673340 699.543030,299.953888 
	C680.431030,299.953888 661.345398,299.953888 641.401794,299.953888 
	C643.220520,303.942474 644.652771,307.238342 646.209717,310.474243 
	C663.382263,346.165497 680.610840,381.830017 697.661255,417.579529 
	C698.585571,419.517609 699.028381,422.702179 698.068237,424.369568 
	C683.897034,448.979706 663.787659,464.624451 634.144653,464.024719 
	C608.830688,463.512543 590.869324,450.045624 576.891174,429.921844 
	C573.022705,424.352600 572.818176,419.849304 575.874756,413.649353 
	C593.756104,377.379578 611.147766,340.868347 628.688293,304.430756 
	C629.247803,303.268524 629.631226,302.021576 630.273315,300.355957 
	C604.284546,300.355957 578.744751,300.355957 552.473633,300.355957 
	C552.473633,319.264587 552.473633,338.171936 552.523193,357.515869 
M631.715881,388.500000 
	C631.715881,366.021240 631.715881,343.542480 631.715881,321.063751 
	C631.371765,321.000671 631.027588,320.937592 630.683472,320.874542 
	C614.681946,354.156464 598.680481,387.438354 582.716858,420.641449 
	C583.563782,421.216217 583.822388,421.545135 584.082581,421.546356 
	C598.883484,421.617340 613.684753,421.619781 628.485229,421.739624 
	C631.759155,421.766113 631.736877,419.756805 631.729065,417.448120 
	C631.697388,408.132172 631.715332,398.816040 631.715881,388.500000 
M657.281738,354.139404 
	C651.934082,343.045715 646.586365,331.952026 641.238647,320.858337 
	C640.287659,353.472534 640.321838,385.722168 640.235962,417.971466 
	C640.227173,421.282227 641.793274,421.766449 644.545288,421.750641 
	C658.528015,421.670227 672.511414,421.716370 686.494568,421.692871 
	C687.256592,421.691589 688.018188,421.461914 689.521545,421.218506 
	C678.737000,398.734467 668.198059,376.762482 657.281738,354.139404 
z"/>
<path fill="#DB974F" opacity="1.000000" stroke="none" 
	d="
M497.954651,282.999268 
	C501.084778,282.999237 503.721527,282.999237 507.001221,282.999237 
	C507.001221,285.302795 507.001251,287.237793 507.001251,289.172791 
	C507.001160,356.332245 506.738129,423.493256 507.142273,490.650269 
	C507.285461,514.445129 512.081970,537.608337 521.717224,559.530334 
	C523.768555,564.197510 526.782898,568.441467 529.486938,573.110657 
	C506.735748,589.064209 497.050781,613.719299 487.876282,638.972839 
	C487.876282,630.729797 487.876434,622.486816 487.876251,614.243774 
	C487.876068,606.078003 487.953888,597.911072 487.839844,589.746887 
	C487.788208,586.049927 487.709137,582.923035 491.633118,580.464050 
	C495.096313,578.293884 494.690521,573.204224 491.727966,570.357239 
	C488.753998,567.499268 484.328247,567.664307 481.509399,570.738403 
	C478.787079,573.707214 478.779358,578.771667 482.319000,580.804993 
	C485.831879,582.822937 485.888062,585.431824 485.875732,588.672913 
	C485.811066,605.670776 485.845520,622.668945 485.845520,639.018311 
	C480.721222,627.436890 475.812836,615.099060 469.878357,603.276245 
	C463.785553,591.138123 455.445618,580.570923 443.958191,573.328613 
	C460.196075,547.688904 465.764221,519.548401 465.900757,490.239319 
	C466.211975,423.414642 465.999023,356.587463 465.999054,289.761322 
	C465.999054,287.771912 465.999023,285.782471 465.999023,282.999268 
	C476.627319,282.999268 487.044281,282.999268 497.954651,282.999268 
z"/>
<path fill="#DB974E" opacity="1.000000" stroke="none" 
	d="
M568.993164,203.000168 
	C573.789185,203.000137 578.087036,203.000137 582.688110,203.000137 
	C582.688110,208.985123 582.688110,214.576447 582.688110,220.586044 
	C518.802979,220.586044 454.801514,220.586044 390.399780,220.586044 
	C390.399780,215.078156 390.399780,209.367920 390.399780,203.000198 
	C449.747101,203.000198 509.121002,203.000198 568.993164,203.000168 
z"/>
<path fill="#DB974E" opacity="1.000000" stroke="none" 
	d="
M515.000000,246.999603 
	C480.566345,246.999557 446.632690,246.999557 412.350220,246.999557 
	C412.350220,241.305542 412.350220,235.932312 412.350220,230.276169 
	C461.806549,230.276169 511.141144,230.276169 560.737793,230.276169 
	C560.737793,235.752991 560.737793,241.009903 560.737793,246.999649 
	C545.643677,246.999649 530.571838,246.999649 515.000000,246.999603 
z"/>
<path fill="#DB974E" opacity="1.000000" stroke="none" 
	d="
M548.999512,267.868713 
	C548.901428,269.788635 548.803406,271.226227 548.694885,272.817444 
	C507.450562,272.817444 466.562561,272.817444 425.337341,272.817444 
	C425.337341,266.947266 425.337341,261.240021 425.337341,255.264984 
	C466.384277,255.264984 507.272797,255.264984 548.999573,255.264984 
	C548.999573,259.236084 548.999573,263.311249 548.999512,267.868713 
z"/>
<path fill="#065299" opacity="1.000000" stroke="none" 
	d="
M1048.331177,531.996216 
	C1048.331299,517.864136 1048.331299,504.231049 1048.331299,490.452087 
	C1055.114380,489.331451 1060.440796,489.436035 1064.814453,496.040009 
	C1071.229858,505.727081 1078.869263,514.603821 1085.994019,523.820435 
	C1086.557495,524.549255 1087.176270,525.235291 1088.559692,526.881958 
	C1088.559692,513.976440 1088.559692,502.264191 1088.559692,490.272217 
	C1092.445435,490.272217 1095.864624,490.272217 1099.646484,490.272217 
	C1099.646484,509.240204 1099.646484,528.295959 1099.646484,547.562927 
	C1093.783325,548.808472 1088.964600,548.462463 1084.943359,542.453247 
	C1078.657837,533.060425 1071.378906,524.331787 1064.504517,515.334290 
	C1063.337280,513.806580 1062.087891,512.341675 1060.153931,509.956665 
	C1060.153931,523.128601 1060.153931,535.179016 1060.153931,547.619263 
	C1056.172607,547.619263 1052.609009,547.619263 1048.331055,547.619263 
	C1048.331055,542.695435 1048.331055,537.595337 1048.331177,531.996216 
z"/>
<path fill="#0B559A" opacity="1.000000" stroke="none" 
	d="
M1136.696289,547.374878 
	C1136.434448,528.219055 1136.434448,509.442932 1136.434448,490.323486 
	C1140.378052,490.323486 1144.116699,490.323486 1148.365967,490.323486 
	C1148.365967,498.276459 1148.365967,506.347900 1148.365967,514.419312 
	C1148.920044,514.815918 1149.473999,515.212463 1150.028076,515.609070 
	C1152.178589,513.010620 1154.230469,510.321838 1156.504883,507.836884 
	C1159.311401,504.770569 1162.721680,502.176331 1165.131470,498.843384 
	C1170.809814,490.989746 1178.067871,487.948181 1187.020264,490.387878 
	C1178.510498,499.006500 1169.624390,508.006195 1160.364624,517.384460 
	C1170.193604,527.582092 1179.688843,537.433350 1189.887085,548.013977 
	C1184.345581,548.013977 1179.747070,548.219360 1175.187378,547.888550 
	C1173.821045,547.789490 1172.361938,546.384644 1171.288208,545.252747 
	C1164.008545,537.578552 1156.820557,529.817322 1148.737061,521.156372 
	C1148.737061,530.717957 1148.737061,539.069763 1148.737061,547.754517 
	C1144.454346,547.754517 1140.706177,547.754517 1136.696289,547.374878 
z"/>
<path fill="#045097" opacity="1.000000" stroke="none" 
	d="
M763.756104,505.399414 
	C765.181335,495.698273 771.237793,490.316254 782.643494,489.166412 
	C792.564697,488.166199 801.711243,490.810638 810.419006,496.845306 
	C808.291565,499.947418 806.279663,502.880981 804.053284,506.127289 
	C797.985535,501.521637 791.718567,498.244354 784.143494,499.038574 
	C782.353638,499.226196 780.216614,499.292999 778.930359,500.298981 
	C777.265320,501.601227 775.139648,503.917938 775.322693,505.562988 
	C775.538269,507.499512 777.705933,510.234894 779.567139,510.779907 
	C784.954712,512.357666 790.631714,512.919373 796.161316,514.045532 
	C809.068787,516.674255 815.094604,526.602783 810.161682,537.342468 
	C806.254883,545.848022 798.410278,548.276367 790.043579,548.913147 
	C779.478088,549.717285 770.090637,546.300842 761.565125,539.173828 
	C763.789185,536.369995 765.920654,533.682861 768.322632,530.654663 
	C774.627686,535.926514 781.283630,539.880493 789.656189,538.954773 
	C791.768921,538.721069 794.315308,538.622986 795.794312,537.406860 
	C797.624817,535.901794 799.565491,533.291626 799.555176,531.168152 
	C799.546509,529.380920 797.120178,526.581177 795.230774,526.017761 
	C789.370361,524.269958 783.247742,523.412415 777.241699,522.139160 
	C768.087463,520.198425 764.028198,515.252808 763.756104,505.399414 
z"/>
<path fill="#045299" opacity="1.000000" stroke="none" 
	d="
M718.899780,523.586243 
	C718.901367,512.319275 718.901367,501.507477 718.901367,490.342712 
	C722.806274,490.342712 726.542908,490.342712 731.003418,490.342712 
	C731.003418,491.781738 731.036743,493.366974 730.998108,494.950439 
	C730.710449,506.740112 731.363281,518.653687 729.849854,530.284851 
	C728.247192,542.601685 717.489014,549.467468 703.727783,549.010559 
	C691.049316,548.589600 680.979309,540.477234 680.145508,528.313110 
	C679.284485,515.751953 679.954041,503.085876 679.954041,490.227417 
	C683.577148,490.227417 687.181152,490.227417 691.558899,490.227417 
	C691.558899,493.438751 691.558289,496.681335 691.559082,499.923889 
	C691.560913,507.748352 691.383911,515.578064 691.612854,523.395874 
	C691.875793,532.373718 696.896484,537.771606 704.703064,537.988281 
	C713.018433,538.218994 717.912231,533.410828 718.899780,523.586243 
z"/>
<path fill="#054E96" opacity="1.000000" stroke="none" 
	d="
M871.257324,525.000061 
	C871.257446,532.798645 871.257446,540.097229 871.257446,547.700195 
	C867.255249,547.700195 863.517090,547.700195 859.289917,547.700195 
	C859.289917,532.297363 859.289917,516.921570 859.289917,501.023804 
	C852.596069,501.023804 846.367493,501.023804 839.974304,501.023804 
	C839.974304,497.216980 839.974304,493.934784 839.974304,490.321198 
	C856.693237,490.321198 873.419006,490.321198 890.520996,490.321198 
	C890.520996,493.548828 890.520996,496.933075 890.520996,500.790802 
	C884.412415,500.790802 878.171692,500.790802 871.257202,500.790802 
	C871.257202,508.990906 871.257202,516.745483 871.257324,525.000061 
z"/>
<path fill="#0C5499" opacity="1.000000" stroke="none" 
	d="
M935.577759,502.023346 
	C935.577393,513.822693 935.577393,525.126892 935.577393,536.846069 
	C946.146484,536.846069 956.419189,536.846069 966.919678,536.846069 
	C966.919678,540.698059 966.919678,544.135132 966.919678,547.798218 
	C952.566650,547.798218 938.298279,547.798218 923.669800,547.798218 
	C923.669800,528.734375 923.669800,509.685699 923.669800,490.306366 
	C927.411316,490.306366 931.157349,490.306366 935.578186,490.306366 
	C935.578186,493.993713 935.578186,497.760925 935.577759,502.023346 
z"/>
<path fill="#055098" opacity="1.000000" stroke="none" 
	d="
M646.000732,514.997314 
	C645.885925,520.643066 646.400574,525.899109 645.526611,530.913147 
	C643.638428,541.746399 634.912598,548.612061 623.615417,549.009216 
	C611.212585,549.445251 602.411499,543.455322 598.934937,531.839966 
	C602.233337,530.558655 605.576233,529.260132 609.241150,527.836548 
	C609.858032,528.814209 610.482361,529.700806 611.002686,530.644714 
	C614.347656,536.713501 619.459229,539.214905 625.376587,537.648743 
	C630.773560,536.220337 633.916321,531.775574 634.014648,525.165649 
	C634.101196,519.346252 634.033569,513.524475 634.033752,507.703796 
	C634.033936,502.058807 634.033752,496.413788 634.033752,490.379761 
	C637.918152,490.379761 641.632935,490.379761 646.000671,490.379761 
	C646.000671,498.336243 646.000671,506.417114 646.000732,514.997314 
z"/>
<path fill="#12599D" opacity="1.000000" stroke="none" 
	d="
M1000.290039,494.247620 
	C999.989197,491.223267 1000.554810,489.631836 1003.698792,489.912872 
	C1006.474976,490.160950 1009.290833,489.964783 1012.341431,489.964783 
	C1012.341431,509.465363 1012.341431,528.546265 1012.341431,547.805542 
	C1008.320007,547.805542 1004.564148,547.805542 1000.289612,547.805542 
	C1000.289612,529.960266 1000.289612,512.339783 1000.290039,494.247620 
z"/>
<path fill="#FEFDFC" opacity="1.000000" stroke="none" 
	d="
M313.919495,358.928345 
	C320.106995,346.052704 326.147369,333.522980 332.748230,319.830688 
	C332.748230,354.464966 332.748230,387.787292 332.748230,421.405914 
	C316.587860,421.405914 300.668518,421.405914 283.861755,421.405914 
	C293.945618,400.459259 303.858978,379.866760 313.919495,358.928345 
z"/>
<path fill="#FEFDFC" opacity="1.000000" stroke="none" 
	d="
M376.945190,392.016968 
	C381.682739,401.888885 386.279358,411.413788 391.119263,421.442871 
	C374.463013,421.442871 358.576141,421.442871 342.341858,421.442871 
	C342.341858,387.909088 342.341858,354.559662 342.341858,320.041718 
	C354.124023,344.530334 365.464142,368.100159 376.945190,392.016968 
z"/>
<path fill="#FEFBF9" opacity="1.000000" stroke="none" 
	d="
M631.715454,389.000000 
	C631.715332,398.816040 631.697388,408.132172 631.729065,417.448120 
	C631.736877,419.756805 631.759155,421.766113 628.485229,421.739624 
	C613.684753,421.619781 598.883484,421.617340 584.082581,421.546356 
	C583.822388,421.545135 583.563782,421.216217 582.716858,420.641449 
	C598.680481,387.438354 614.681946,354.156464 630.683472,320.874542 
	C631.027588,320.937592 631.371765,321.000671 631.715881,321.063751 
	C631.715881,343.542480 631.715881,366.021240 631.715454,389.000000 
z"/>
<path fill="#FEFBF9" opacity="1.000000" stroke="none" 
	d="
M657.470398,354.464966 
	C668.198059,376.762482 678.737000,398.734467 689.521545,421.218506 
	C688.018188,421.461914 687.256592,421.691589 686.494568,421.692871 
	C672.511414,421.716370 658.528015,421.670227 644.545288,421.750641 
	C641.793274,421.766449 640.227173,421.282227 640.235962,417.971466 
	C640.321838,385.722168 640.287659,353.472534 641.238647,320.858337 
	C646.586365,331.952026 651.934082,343.045715 657.470398,354.464966 
z"/>
</svg>